<svg width="57" height="20" viewBox="0 0 57 20" fill="none" xmlns="http://www.w3.org/2000/svg">
<path d="M0.355469 15V4.43359H1.42969L1.49805 6.48438C1.66081 6.17839 1.85286 5.89518 2.07422 5.63477C2.29557 5.37435 2.54297 5.14974 2.81641 4.96094C3.13542 4.73958 3.48698 4.5638 3.87109 4.43359C4.26172 4.30339 4.67513 4.23828 5.11133 4.23828C5.69076 4.23828 6.20182 4.32617 6.64453 4.50195C7.09375 4.67773 7.4681 4.9349 7.76758 5.27344C8.07357 5.61849 8.30469 6.03841 8.46094 6.5332C8.61719 7.02799 8.69531 7.59115 8.69531 8.22266V15H7.5332V8.24219C7.52669 7.76042 7.4681 7.33398 7.35742 6.96289C7.25326 6.5918 7.09049 6.2793 6.86914 6.02539C6.64128 5.77148 6.35807 5.57943 6.01953 5.44922C5.6875 5.31901 5.29036 5.25716 4.82812 5.26367C4.42448 5.26367 4.04362 5.33529 3.68555 5.47852C3.32747 5.61523 3.00195 5.80078 2.70898 6.03516C2.43555 6.25651 2.19792 6.52018 1.99609 6.82617C1.79427 7.12565 1.63802 7.44466 1.52734 7.7832V15H0.355469ZM12.9238 19.2676C12.7676 19.2676 12.5951 19.2513 12.4062 19.2188C12.224 19.1927 12.0645 19.1667 11.9277 19.1406L12.0645 18.1543C12.2077 18.1673 12.3542 18.1803 12.5039 18.1934C12.6536 18.2129 12.7839 18.2227 12.8945 18.2227C13.194 18.2227 13.4674 18.1608 13.7148 18.0371C13.9622 17.9199 14.1836 17.7669 14.3789 17.5781C14.5742 17.3958 14.7435 17.1875 14.8867 16.9531C15.0299 16.7253 15.1536 16.5039 15.2578 16.2891L15.9805 14.7461L11.2246 4.43359H12.543L16.1758 12.4609L16.5566 13.4082L16.9277 12.4805L20.375 4.43359H21.7031L16.2441 16.6992C16.1009 17.0182 15.9316 17.3275 15.7363 17.627C15.541 17.9329 15.3099 18.2064 15.043 18.4473C14.776 18.6947 14.4668 18.8932 14.1152 19.043C13.7702 19.1927 13.373 19.2676 12.9238 19.2676ZM17.8457 0.361328H19.2617L17.0156 2.95898H16.0488L17.8457 0.361328ZM28.2754 1.72852V4.43359H32.1914V5.40039H28.2754V12.0215C28.2819 12.4316 28.3438 12.7734 28.4609 13.0469C28.5781 13.3203 28.7409 13.5384 28.9492 13.7012C29.1576 13.8704 29.4017 13.9909 29.6816 14.0625C29.9616 14.1341 30.2611 14.1699 30.5801 14.1699C30.7689 14.1699 30.9577 14.1634 31.1465 14.1504C31.3353 14.1309 31.5208 14.1113 31.7031 14.0918C31.8398 14.0723 31.9733 14.0527 32.1035 14.0332C32.2402 14.0072 32.3574 13.9844 32.4551 13.9648L32.6309 14.8535C32.5137 14.9121 32.377 14.9609 32.2207 15C32.071 15.0391 31.9115 15.0716 31.7422 15.0977C31.5273 15.1367 31.3027 15.1628 31.0684 15.1758C30.8405 15.1888 30.6126 15.1953 30.3848 15.1953C29.916 15.1953 29.4798 15.1367 29.0762 15.0195C28.679 14.9089 28.334 14.7266 28.041 14.4727C27.748 14.2253 27.5169 13.8997 27.3477 13.4961C27.1849 13.0924 27.1003 12.6009 27.0938 12.0215V5.40039H24.1543V4.43359H27.0938V1.72852H28.2754ZM40.2871 1.72852V4.43359H44.2031V5.40039H40.2871V12.0215C40.2936 12.4316 40.3555 12.7734 40.4727 13.0469C40.5898 13.3203 40.7526 13.5384 40.9609 13.7012C41.1693 13.8704 41.4134 13.9909 41.6934 14.0625C41.9733 14.1341 42.2728 14.1699 42.5918 14.1699C42.7806 14.1699 42.9694 14.1634 43.1582 14.1504C43.347 14.1309 43.5326 14.1113 43.7148 14.0918C43.8516 14.0723 43.985 14.0527 44.1152 14.0332C44.252 14.0072 44.3691 13.9844 44.4668 13.9648L44.6426 14.8535C44.5254 14.9121 44.3887 14.9609 44.2324 15C44.0827 15.0391 43.9232 15.0716 43.7539 15.0977C43.5391 15.1367 43.3145 15.1628 43.0801 15.1758C42.8522 15.1888 42.6243 15.1953 42.3965 15.1953C41.9277 15.1953 41.4915 15.1367 41.0879 15.0195C40.6908 14.9089 40.3457 14.7266 40.0527 14.4727C39.7598 14.2253 39.5286 13.8997 39.3594 13.4961C39.1966 13.0924 39.112 12.6009 39.1055 12.0215V5.40039H36.166V4.43359H39.1055V1.72852H40.2871ZM55.668 15C55.5964 14.7656 55.541 14.515 55.502 14.248C55.4694 13.9811 55.4466 13.7109 55.4336 13.4375C55.2318 13.7044 54.9941 13.9486 54.7207 14.1699C54.4538 14.3848 54.1608 14.5671 53.8418 14.7168C53.5163 14.873 53.1712 14.9902 52.8066 15.0684C52.4486 15.153 52.0742 15.1953 51.6836 15.1953C51.1953 15.1953 50.7363 15.1237 50.3066 14.9805C49.877 14.8372 49.5059 14.6354 49.1934 14.375C48.8809 14.1146 48.6335 13.8021 48.4512 13.4375C48.2689 13.0664 48.1777 12.653 48.1777 12.1973C48.1777 11.5918 48.3112 11.0775 48.5781 10.6543C48.8516 10.2311 49.2161 9.88281 49.6719 9.60938C50.1211 9.34896 50.6452 9.16016 51.2441 9.04297C51.8431 8.91927 52.4714 8.85417 53.1289 8.84766H55.4238V7.65625C55.4173 7.25911 55.3392 6.91081 55.1895 6.61133C55.0397 6.30534 54.8346 6.05143 54.5742 5.84961C54.3138 5.64779 54.0046 5.49479 53.6465 5.39062C53.2949 5.27995 52.9141 5.22461 52.5039 5.22461C52.1263 5.22461 51.765 5.27344 51.4199 5.37109C51.0749 5.46875 50.7689 5.60872 50.502 5.79102C50.2415 5.97331 50.0267 6.19792 49.8574 6.46484C49.6947 6.72526 49.61 7.02148 49.6035 7.35352L48.4316 7.34375C48.4512 6.89453 48.5716 6.48112 48.793 6.10352C49.0143 5.72591 49.3105 5.39714 49.6816 5.11719C50.0527 4.84375 50.4824 4.62891 50.9707 4.47266C51.4655 4.31641 51.9928 4.23828 52.5527 4.23828C53.1126 4.23828 53.6367 4.3099 54.125 4.45312C54.6133 4.59635 55.0397 4.80794 55.4043 5.08789C55.7624 5.38086 56.0456 5.74219 56.2539 6.17188C56.4688 6.60156 56.5794 7.10286 56.5859 7.67578V12.7832C56.5859 13.1413 56.6152 13.4993 56.6738 13.8574C56.7389 14.2155 56.8171 14.5573 56.9082 14.8828L56.918 15H55.668ZM51.8105 14.1504C52.2207 14.1569 52.6113 14.1113 52.9824 14.0137C53.3535 13.9095 53.6953 13.7663 54.0078 13.584C54.3203 13.4017 54.597 13.1836 54.8379 12.9297C55.0788 12.6758 55.2741 12.3926 55.4238 12.0801V9.75586H53.2949C52.7155 9.76237 52.1654 9.8112 51.6445 9.90234C51.1237 9.99349 50.6777 10.1562 50.3066 10.3906C50.0072 10.5794 49.7695 10.8138 49.5938 11.0938C49.4245 11.3672 49.3398 11.6992 49.3398 12.0898C49.3398 12.4089 49.4049 12.6953 49.5352 12.9492C49.6654 13.2031 49.8411 13.418 50.0625 13.5938C50.2839 13.776 50.5443 13.916 50.8438 14.0137C51.1497 14.1048 51.472 14.1504 51.8105 14.1504Z" fill="#FFFEFE"/>
</svg>
