<svg width="42" height="36" viewBox="0 0 42 36" fill="none" xmlns="http://www.w3.org/2000/svg">
<path d="M20.7388 0.0111053C23.3881 -0.150319 25.9471 1.46473 26.9466 3.7689C27.4643 4.96257 27.5188 6.29074 27.2336 7.54363C28.2863 7.52804 29.4759 8.13518 29.9648 9.02371L29.976 9.04439C30.0583 9.19122 30.1086 9.33912 30.1452 9.50162C30.1714 9.6181 30.1231 9.70106 30.2544 9.70648C30.829 9.73007 31.4332 9.92642 31.9729 10.0958C33.8804 10.6946 36.987 12.2974 37.7395 14.2137C37.9985 14.8735 38.0128 15.8233 37.5135 16.3772C37.9256 16.6562 38.6801 17.2284 39.046 17.5512C41.0792 19.3452 43.3335 23.0484 41.0059 25.4001L41.2295 25.9093C42.2093 28.4288 42.3183 31.2234 41.1861 33.7225C40.5787 35.063 39.6212 36.2898 37.911 35.8716C36.1246 35.4348 34.203 32.4922 32.7749 31.0901L32.5073 30.8427C32.2637 30.6311 30.7787 31.5815 29.676 29.086C29.3235 28.2884 28.9541 27.7241 28.112 27.3197C27.6839 27.1141 27.2131 27.0981 26.7665 26.953C26.2423 26.7828 25.7396 26.5483 25.2274 26.348C24.9591 26.2432 24.9851 26.1825 24.7245 26.2886C23.9205 26.6157 23.7995 26.4946 23.1126 26.1293C22.5154 25.8118 21.935 25.6745 21.2583 25.623C20.4792 25.6075 19.7137 25.6747 19.028 26.0586C18.8103 26.1805 18.6185 26.3575 18.3716 26.4257L18.3416 26.4338C18.0196 26.5262 17.5236 26.4196 17.228 26.294C16.9435 26.1731 15.9983 26.7108 15.6738 26.8276C14.3638 27.299 13.0831 27.2274 12.4498 28.7839C12.3208 29.1011 12.2331 29.4422 12.041 29.7337L11.9722 29.8371C11.6626 30.2865 11.1349 30.7282 10.5679 30.8397L10.5292 30.8471C9.94661 30.9603 9.73346 30.6413 9.40906 30.9497C7.87674 32.4067 6.40888 34.8303 4.48319 35.7509C2.39189 36.7507 1.0504 34.5206 0.525394 32.9626C-0.248464 30.6662 -0.0698707 28.2115 0.753351 25.9503C0.825653 25.7517 0.951761 25.5522 1.00835 25.3534L0.638077 24.9272C-0.388209 23.591 -0.0213789 21.9977 0.653706 20.6156C1.55439 18.7716 2.82986 17.5751 4.52701 16.4187L4.50658 16.391C3.65018 15.2089 4.24624 13.8548 5.20189 12.916C6.6724 11.4715 8.6619 10.4439 10.7007 9.92859C11.0595 9.83788 11.4545 9.71207 11.8261 9.70581C12.1355 8.34679 13.3431 7.57931 14.791 7.52779C14.6539 7.05696 14.6385 6.57397 14.6383 6.08989C14.6368 3.40209 16.375 1.16371 19.0465 0.305547C19.3434 0.210174 19.681 0.111457 19.9914 0.0815997L20.7388 0.0111053ZM14.4573 8.82078C13.9157 8.90757 13.4165 9.23582 13.1863 9.7114L13.1727 9.73866C12.9116 10.3133 13.7182 13.1861 13.8838 13.8177L15.6353 19.3957L17.5464 24.3354L17.9495 25.0837C19.7299 24.3253 21.2641 24.054 23.1671 24.7341C23.4613 24.8393 23.7544 24.9967 24.0542 25.0784C24.4467 24.6739 24.8355 23.525 25.0428 23.0098L27.0147 17.4941C27.6131 15.6518 28.1771 13.8086 28.5946 11.9209C28.7415 11.2569 29.1283 10.2711 28.7487 9.62502L28.6397 9.46894C28.2248 8.9049 27.4272 8.83762 26.7648 8.8247L24.8272 12.5007L23.407 14.6317C22.9256 15.3123 22.3168 16.2946 21.4107 16.5133L21.2996 16.5388C20.0802 16.8289 19.1992 15.4361 18.6278 14.6514C17.7662 13.4681 16.9483 12.2309 16.2811 10.9385L15.6853 9.7555C15.5851 9.54882 15.3973 8.9335 15.1549 8.85396L15.0377 8.83003C14.8521 8.79802 14.6437 8.79476 14.4573 8.82078ZM20.808 1.30046C18.8678 1.40865 17.1647 2.45431 16.3917 4.14437C15.1812 6.79099 17.0724 9.66729 18.4505 11.9209C19.0751 12.9423 19.7387 13.9797 20.5374 14.8882C20.6848 15.056 20.8725 15.4182 21.1221 15.251C21.5673 14.8459 21.9242 14.3341 22.2746 13.8548C23.591 12.0543 26.0616 8.34295 26.0569 6.03402C26.0512 3.30853 23.647 1.23668 20.808 1.30046ZM36.6654 17.4071C34.758 19.1029 32.9682 20.9473 31.3732 22.9126L29.5968 25.1704C29.3319 25.5101 29.0764 25.902 28.7756 26.2109C29.6745 26.6412 30.3939 27.4107 30.8028 28.277C30.9397 28.5671 31.0447 28.9191 31.234 29.1797L31.2479 29.2003C31.3633 29.3668 31.5417 29.5182 31.7271 29.611C31.8319 29.537 32.1877 29.2379 32.2399 29.1184C33.3815 28.0129 34.7203 27.1806 36.126 26.4068L38.943 25.1063C39.4394 24.8839 39.9745 24.6181 40.2915 24.1771L40.3128 24.1483C40.6371 23.7045 40.7084 23.0848 40.6163 22.5617L40.6 22.4887C40.1223 20.2862 38.5028 18.6958 36.6654 17.4071ZM5.38856 17.4088C3.51488 18.5109 1.95299 20.3614 1.42681 22.4021C1.28384 22.9566 1.33714 23.6029 1.6604 24.0913L1.79102 24.2599C2.13875 24.6866 2.73096 24.9375 3.23372 25.1633L6.4153 26.6835C7.62031 27.3532 8.76856 28.1121 9.76466 29.0431C9.94211 29.2198 10.1157 29.4213 10.3354 29.5513C10.8271 29.3462 10.8791 28.9831 11.0858 28.554C11.5874 27.5129 12.1302 26.7403 13.2338 26.2434C12.9607 25.9322 12.7358 25.5776 12.4876 25.2473L11.3092 23.7394C10.0167 22.1317 8.62946 20.6071 7.17091 19.1334C6.59509 18.5516 6.0168 17.9389 5.38856 17.4088ZM30.1629 10.978L29.7126 13.1507L28.2465 18.0802L26.8303 22.1344L25.6426 25.1679C25.7184 25.2356 27.2233 25.6885 27.3915 25.7107C27.7353 25.3853 28.0123 25.0232 28.3034 24.6565L29.4073 23.2284L31.4522 20.764L35.1314 16.9972C35.5962 16.558 36.5659 15.8168 36.5494 15.1412L36.5486 15.1039C36.5272 14.4801 35.856 13.7963 35.3991 13.3983C34.0605 12.2322 31.9865 11.2534 30.1629 10.978ZM11.8068 11.0141C9.86313 11.3039 7.69339 12.4188 6.31554 13.6951C6.09475 13.8996 5.85076 14.1079 5.67353 14.3492L5.61479 14.4424C5.4531 14.7171 5.36782 15.0179 5.4457 15.3333L5.47606 15.4351C5.60841 15.8641 6.07183 16.2166 6.3856 16.5345L9.4921 19.5911L12.6322 23.2523L13.999 25.0089C14.1696 25.2344 14.3728 25.5463 14.6218 25.6953C15.2746 25.6196 15.8387 25.3484 16.4484 25.1368C16.2221 24.7337 16.0455 24.3146 15.8622 23.8932L13.8528 18.4412L12.9358 15.4581L11.8975 11.2368C11.8801 11.1471 11.8999 11.0565 11.8068 11.0141ZM2.17306 26.0993L1.584 28.0281C1.15122 29.8575 1.39215 32.3458 2.49805 33.9738C3.46893 35.403 4.51598 34.3106 5.33753 33.4527L5.94827 32.7983C6.69316 31.9714 7.79758 30.4566 8.72519 29.8509C8.36739 29.6042 8.03427 29.3182 7.69004 29.0543C6.03301 27.7838 4.06891 26.9895 2.17306 26.0993ZM39.7824 26.1677L37.3821 27.2397C35.9212 27.9409 34.566 28.8239 33.3352 29.8441L36.1541 32.8706L36.9196 33.6819C37.2829 34.0415 37.767 34.5282 38.2967 34.6407L38.3229 34.6464C38.9493 34.7754 39.3259 34.3061 39.6008 33.8486C40.8873 31.7072 40.9306 28.442 39.8613 26.1803C39.8172 26.1548 39.8279 26.1603 39.7824 26.1677Z" fill="white"/>
</svg>
